<?xml version="1.0" encoding="utf-8"?>
<!-- Generator: Adobe Illustrator 16.0.0, SVG Export Plug-In . SVG Version: 6.00 Build 0)  -->
<!DOCTYPE svg PUBLIC "-//W3C//DTD SVG 1.1//EN" "http://www.w3.org/Graphics/SVG/1.1/DTD/svg11.dtd">
<svg version="1.1" id="Layer_1" xmlns="http://www.w3.org/2000/svg" xmlns:xlink="http://www.w3.org/1999/xlink" x="0px" y="0px"
	 width="24px" height="24px" viewBox="0 0 24 24" enable-background="new 0 0 24 24" xml:space="preserve">
<g>
	<path fill-rule="evenodd" clip-rule="evenodd" fill="none" stroke="#878787" stroke-width="1.0114" stroke-miterlimit="10" d="
		M8.77,1.5C8.896,2.008,7.958,6.157,9.72,7.088"/>
	<path fill-rule="evenodd" clip-rule="evenodd" fill="none" stroke="#878787" stroke-width="1.0114" stroke-miterlimit="10" d="
		M22.978,11.322c-1.245,0.931-2.45,0.912-2.45,0.912"/>
	<path fill-rule="evenodd" clip-rule="evenodd" fill="none" stroke="#878787" stroke-width="1.0114" stroke-miterlimit="10" d="
		M18.629,8.57c1.007-0.677,3.584-2.392,3.798-4.022"/>
	<path fill-rule="evenodd" clip-rule="evenodd" fill="none" stroke="#878787" stroke-width="1.0114" stroke-miterlimit="10" d="
		M19.62,21.109c-1.662-1.956-1.895-2.621-2.156-3.77"/>
	<path fill-rule="evenodd" clip-rule="evenodd" fill="none" stroke="#878787" stroke-width="1.0114" stroke-miterlimit="10" d="
		M7.378,21.896c1.309-1.795,2.21-4.294,2.21-4.294"/>
	<path fill-rule="evenodd" clip-rule="evenodd" fill="none" stroke="#878787" stroke-width="1.0114" stroke-miterlimit="10" d="
		M1.079,16.5c1.649-0.013,4.32-1.546,4.32-1.546"/>
	<path fill-rule="evenodd" clip-rule="evenodd" fill="none" stroke="#878787" stroke-width="1.0114" stroke-miterlimit="10" d="
		M1.806,7.385c1.636,1.439,4.069,2.371,4.069,2.371"/>
	<g>
		<g>
			<polygon fill-rule="evenodd" clip-rule="evenodd" fill="#36A9E1" points="5.451,8.833 8.122,7.422 10.285,7.422 12.192,6.011 
				14.567,5.485 16.857,6.011 18.384,7.968 19.783,9.765 20.885,12.171 20.885,14.643 20.037,16.269 18.68,17.638 17.451,18.366 
				15.67,19.778 13.168,19.778 11.218,18.237 8.292,18.065 6.214,16.868 4.857,15.328 4.349,13.23 4.349,10.792 			"/>
			<path fill-rule="evenodd" clip-rule="evenodd" fill="#1D71B8" d="M21.301,14.08c0.021,0.317-0.101,0.555-0.123,0.651
				c-0.479,2.084-1.521,3.217-2.979,3.646c-0.146,0.042-0.283,0.071-0.406,0.227c-1.705,2.147-4.052,2.325-5.916,0.73
				c-0.598-0.51-1.149-0.57-1.797-0.509c-1.467,0.139-2.868-0.176-4.095-1.326c-1.417-1.328-2.175-3.194-1.965-5.722
				c0.185-2.2,1.097-3.694,2.466-4.66c1.255-0.884,2.557-1.049,3.88-0.599c0.214,0.073,0.375,0.024,0.564-0.161
				c2.44-2.381,5.829-2.067,7.716,0.8c0.551,0.836,1.075,1.691,1.681,2.455c0.617,0.779,0.929,1.842,0.991,3.048
				C21.321,12.725,21.33,13.529,21.301,14.08z M9.007,7.542c-0.972-0.013-2.015,0.375-2.92,1.412c-0.875,1-1.304,2.302-1.196,3.865
				c0.159,2.241,1.152,3.516,2.532,4.258c1.157,0.624,2.378,0.619,3.608,0.361c0.276-0.057,0.498-0.045,0.707,0.244
				c0.223,0.31,0.505,0.517,0.785,0.716c1.57,1.127,3.529,0.94,4.855-0.964c0.152-0.218,0.324-0.208,0.5-0.25
				c1.044-0.239,1.894-0.923,2.328-2.375c0.424-1.419,0.299-2.758-0.324-3.972c-0.324-0.629-0.883-0.889-1.204-1.462
				c-0.331-0.586-0.581-1.27-0.995-1.767c-1.779-2.14-4.753-2.07-6.627,0.17c-0.162,0.195-0.284,0.25-0.478,0.152
				C10.122,7.7,9.646,7.581,9.007,7.542z"/>
		</g>
		<g>
			<path fill="#FFFFFF" d="M10.163,16.186V9.077h3.463c0.812,0,1.365,0.131,1.659,0.393c0.294,0.262,0.441,0.756,0.441,1.482
				c0,0.878-0.346,1.396-1.037,1.552v0.026c0.805,0.125,1.208,0.689,1.208,1.693c0,0.726-0.155,1.234-0.464,1.526
				c-0.31,0.292-0.85,0.438-1.621,0.438H10.163z M11.5,12.061h1.636c0.53,0,0.868-0.058,1.014-0.177
				c0.146-0.118,0.22-0.391,0.22-0.818c0-0.57-0.32-0.854-0.96-0.854H11.5V12.061z M11.5,15.051h1.465l0.47-0.011
				c0.451,0,0.747-0.064,0.89-0.193c0.143-0.128,0.215-0.399,0.215-0.812c0-0.431-0.075-0.701-0.225-0.812
				c-0.149-0.111-0.518-0.167-1.107-0.167H11.5V15.051z"/>
		</g>
	</g>
	<g>
		<g>
			<polygon fill-rule="evenodd" clip-rule="evenodd" fill="#1D71B8" points="21.147,3.421 21.624,3.17 22.01,3.17 22.351,2.918 
				22.774,2.824 23.184,2.918 23.457,3.268 23.706,3.588 23.903,4.018 23.903,4.459 23.751,4.75 23.509,4.994 23.29,5.124 
				22.972,5.376 22.525,5.376 22.177,5.101 21.654,5.07 21.283,4.856 21.042,4.582 20.951,4.207 20.951,3.772 			"/>
			<path fill-rule="evenodd" clip-rule="evenodd" fill="#575756" d="M23.975,4.426c-0.02,0.006-0.015,0.032-0.019,0.049
				c-0.086,0.373-0.272,0.574-0.533,0.651c-0.025,0.007-0.05,0.013-0.072,0.04c-0.304,0.383-0.724,0.415-1.056,0.13
				c-0.106-0.091-0.205-0.102-0.321-0.091c-0.262,0.025-0.512-0.031-0.731-0.237c-0.253-0.237-0.389-0.57-0.351-1.022
				c0.032-0.392,0.196-0.659,0.44-0.831c0.224-0.159,0.456-0.188,0.693-0.107c0.038,0.013,0.066,0.004,0.1-0.029
				c0.436-0.425,1.042-0.369,1.378,0.143c0.099,0.149,0.192,0.302,0.3,0.438c0.11,0.139,0.167,0.329,0.177,0.544
				c0,0.012,0.001,0.022,0.01,0.025C23.985,4.229,23.979,4.327,23.975,4.426z M21.782,3.191c-0.173-0.002-0.36,0.067-0.521,0.252
				c-0.156,0.178-0.232,0.41-0.213,0.689c0.028,0.4,0.206,0.628,0.452,0.761c0.207,0.111,0.425,0.11,0.645,0.064
				c0.049-0.01,0.089-0.008,0.126,0.044c0.04,0.055,0.09,0.092,0.14,0.128c0.28,0.201,0.63,0.167,0.867-0.172
				c0.027-0.039,0.058-0.037,0.089-0.044c0.187-0.043,0.338-0.166,0.416-0.424c0.076-0.253,0.053-0.493-0.058-0.709
				c-0.058-0.113-0.158-0.159-0.215-0.261c-0.059-0.105-0.103-0.227-0.177-0.316c-0.318-0.381-0.849-0.368-1.183,0.031
				c-0.029,0.036-0.05,0.045-0.085,0.027C21.981,3.22,21.896,3.198,21.782,3.191z"/>
		</g>
		<g>
			<polygon fill-rule="evenodd" clip-rule="evenodd" fill="#1D71B8" points="6.968,0.882 7.548,0.576 8.017,0.576 8.431,0.271 
				8.945,0.156 9.442,0.271 9.773,0.694 10.076,1.084 10.315,1.606 10.315,2.142 10.132,2.495 9.837,2.792 9.571,2.949 9.185,3.255 
				8.642,3.255 8.219,2.921 7.585,2.884 7.134,2.625 6.84,2.291 6.729,1.835 6.729,1.307 			"/>
			<path fill-rule="evenodd" clip-rule="evenodd" fill="#575756" d="M10.402,2.101c-0.023,0.007-0.019,0.039-0.023,0.06
				c-0.104,0.453-0.331,0.698-0.646,0.791C9.701,2.96,9.672,2.967,9.645,3c-0.37,0.465-0.879,0.504-1.283,0.159
				c-0.129-0.111-0.25-0.124-0.39-0.111C7.654,3.079,7.351,3.01,7.084,2.761C6.777,2.474,6.613,2.068,6.659,1.52
				c0.04-0.477,0.237-0.801,0.534-1.01c0.272-0.192,0.554-0.228,0.841-0.13c0.047,0.015,0.081,0.005,0.122-0.035
				C8.686-0.172,9.421-0.103,9.83,0.519C9.95,0.7,10.063,0.885,10.194,1.05c0.134,0.169,0.202,0.4,0.215,0.661
				c0.001,0.015,0.001,0.027,0.013,0.031C10.416,1.863,10.409,1.981,10.402,2.101z M7.74,0.602c-0.21-0.003-0.437,0.082-0.634,0.306
				C6.917,1.125,6.824,1.407,6.848,1.747c0.034,0.486,0.25,0.763,0.548,0.923c0.251,0.135,0.517,0.134,0.782,0.078
				c0.061-0.013,0.109-0.01,0.154,0.053c0.048,0.067,0.109,0.112,0.17,0.155c0.341,0.245,0.766,0.205,1.053-0.208
				C9.588,2.7,9.625,2.702,9.663,2.693c0.227-0.052,0.411-0.201,0.505-0.516c0.091-0.308,0.065-0.598-0.07-0.861
				C10.028,1.18,9.907,1.124,9.836,1C9.765,0.873,9.711,0.724,9.621,0.616C9.235,0.153,8.59,0.168,8.184,0.653
				C8.149,0.696,8.122,0.708,8.08,0.687C7.981,0.637,7.878,0.61,7.74,0.602z"/>
		</g>
		<g>
			<polygon fill-rule="evenodd" clip-rule="evenodd" fill="#1D71B8" points="5.431,20.886 6.151,20.507 6.733,20.507 7.246,20.127 
				7.886,19.985 8.502,20.127 8.914,20.654 9.291,21.138 9.588,21.787 9.588,22.452 9.359,22.89 8.994,23.259 8.663,23.455 
				8.184,23.834 7.51,23.834 6.984,23.42 6.197,23.374 5.637,23.051 5.271,22.636 5.134,22.072 5.134,21.415 			"/>
			<path fill-rule="evenodd" clip-rule="evenodd" fill="#575756" d="M9.696,22.401c-0.03,0.009-0.023,0.049-0.029,0.074
				c-0.129,0.562-0.41,0.867-0.803,0.981c-0.039,0.012-0.075,0.02-0.109,0.062c-0.458,0.578-1.091,0.626-1.593,0.197
				C7,23.577,6.853,23.562,6.677,23.578c-0.395,0.038-0.773-0.047-1.103-0.357c-0.382-0.357-0.585-0.86-0.529-1.542
				c0.05-0.592,0.296-0.994,0.665-1.254c0.337-0.239,0.688-0.283,1.045-0.162c0.058,0.019,0.101,0.006,0.151-0.044
				c0.658-0.642,1.571-0.557,2.079,0.216c0.149,0.225,0.29,0.456,0.453,0.661c0.166,0.21,0.25,0.497,0.267,0.821
				c0.001,0.018,0.001,0.034,0.016,0.039C9.711,22.106,9.704,22.253,9.696,22.401z M6.389,20.54
				c-0.262-0.003-0.543,0.102-0.787,0.381c-0.235,0.269-0.351,0.619-0.321,1.04c0.042,0.604,0.31,0.948,0.681,1.147
				c0.312,0.168,0.64,0.167,0.972,0.097c0.074-0.015,0.134-0.012,0.19,0.066c0.06,0.083,0.135,0.139,0.211,0.193
				c0.422,0.304,0.951,0.253,1.307-0.26c0.041-0.059,0.088-0.056,0.135-0.067c0.282-0.065,0.51-0.25,0.627-0.641
				c0.114-0.381,0.081-0.743-0.087-1.069c-0.087-0.169-0.237-0.239-0.324-0.393c-0.09-0.158-0.156-0.342-0.268-0.477
				c-0.479-0.576-1.28-0.556-1.784,0.046c-0.044,0.053-0.077,0.067-0.129,0.041C6.688,20.583,6.561,20.55,6.389,20.54z"/>
		</g>
		<g>
			<polygon fill-rule="evenodd" clip-rule="evenodd" fill="#1D71B8" points="18.567,20.563 18.957,20.358 19.271,20.358 
				19.549,20.153 19.894,20.076 20.228,20.153 20.45,20.438 20.653,20.698 20.814,21.049 20.814,21.409 20.69,21.646 20.493,21.845 
				20.314,21.951 20.055,22.156 19.691,22.156 19.407,21.932 18.981,21.907 18.679,21.733 18.481,21.508 18.407,21.203 
				18.407,20.849 			"/>
			<path fill-rule="evenodd" clip-rule="evenodd" fill="#575756" d="M20.873,21.381c-0.017,0.005-0.013,0.026-0.016,0.041
				c-0.07,0.303-0.222,0.468-0.434,0.53c-0.021,0.006-0.04,0.011-0.059,0.033c-0.248,0.313-0.589,0.339-0.86,0.106
				c-0.087-0.074-0.167-0.083-0.262-0.074c-0.213,0.02-0.417-0.026-0.596-0.192c-0.206-0.194-0.316-0.465-0.286-0.833
				c0.027-0.32,0.16-0.538,0.359-0.678c0.183-0.129,0.372-0.153,0.564-0.087c0.032,0.01,0.054,0.003,0.082-0.023
				c0.355-0.347,0.849-0.301,1.123,0.116c0.081,0.122,0.156,0.247,0.245,0.358c0.089,0.113,0.135,0.268,0.144,0.443
				c0,0.01,0.001,0.02,0.008,0.021C20.881,21.221,20.876,21.301,20.873,21.381z M19.085,20.376
				c-0.141-0.002-0.294,0.055-0.425,0.206c-0.127,0.145-0.19,0.334-0.174,0.562c0.023,0.327,0.167,0.512,0.368,0.62
				c0.168,0.091,0.346,0.09,0.525,0.052c0.04-0.008,0.073-0.006,0.103,0.037c0.033,0.045,0.074,0.075,0.115,0.104
				c0.229,0.165,0.514,0.136,0.707-0.141c0.021-0.032,0.047-0.03,0.072-0.036c0.153-0.034,0.275-0.134,0.339-0.346
				c0.062-0.206,0.043-0.401-0.047-0.578c-0.047-0.092-0.128-0.129-0.176-0.212c-0.048-0.085-0.084-0.185-0.145-0.258
				c-0.259-0.311-0.691-0.301-0.964,0.025c-0.024,0.029-0.042,0.037-0.069,0.022C19.247,20.398,19.178,20.381,19.085,20.376z"/>
		</g>
		<g>
			<polygon fill-rule="evenodd" clip-rule="evenodd" fill="#1D71B8" points="0.262,7.013 0.739,6.762 1.125,6.762 1.465,6.51 
				1.889,6.416 2.298,6.51 2.571,6.859 2.82,7.18 3.018,7.61 3.018,8.051 2.866,8.341 2.624,8.586 2.405,8.715 2.086,8.968 
				1.64,8.968 1.292,8.693 0.77,8.662 0.398,8.448 0.156,8.173 0.065,7.799 0.065,7.363 			"/>
			<path fill-rule="evenodd" clip-rule="evenodd" fill="#575756" d="M3.089,8.017c-0.02,0.006-0.016,0.032-0.02,0.049
				C2.984,8.439,2.798,8.641,2.538,8.717C2.512,8.725,2.488,8.73,2.465,8.758c-0.304,0.383-0.723,0.415-1.056,0.13
				C1.302,8.797,1.204,8.787,1.088,8.797c-0.261,0.025-0.512-0.032-0.73-0.237C0.104,8.324-0.031,7.99,0.006,7.539
				c0.033-0.392,0.196-0.659,0.44-0.832C0.67,6.549,0.903,6.52,1.14,6.6c0.038,0.013,0.066,0.004,0.1-0.029
				c0.436-0.425,1.041-0.369,1.378,0.144c0.099,0.149,0.192,0.302,0.3,0.438c0.109,0.139,0.166,0.329,0.177,0.544
				c0,0.012,0.001,0.022,0.01,0.025C3.1,7.821,3.094,7.919,3.089,8.017z M0.897,6.783C0.724,6.781,0.538,6.85,0.375,7.035
				c-0.156,0.179-0.232,0.411-0.213,0.69c0.029,0.4,0.206,0.628,0.452,0.76C0.82,8.597,1.039,8.596,1.258,8.55
				c0.049-0.01,0.089-0.008,0.126,0.044c0.04,0.055,0.09,0.092,0.14,0.127c0.28,0.202,0.63,0.168,0.867-0.172
				C2.418,8.51,2.449,8.512,2.48,8.505c0.187-0.043,0.338-0.166,0.416-0.424C2.972,7.827,2.95,7.588,2.838,7.372
				C2.781,7.259,2.681,7.213,2.624,7.111C2.564,7.006,2.52,6.884,2.446,6.794C2.128,6.413,1.597,6.425,1.263,6.825
				C1.233,6.861,1.212,6.87,1.177,6.852C1.096,6.812,1.011,6.79,0.897,6.783z"/>
		</g>
		<g>
			<polygon fill-rule="evenodd" clip-rule="evenodd" fill="#1D71B8" points="22.127,10.875 22.441,10.71 22.696,10.71 22.92,10.543 
				23.199,10.481 23.469,10.543 23.648,10.773 23.813,10.985 23.942,11.268 23.942,11.559 23.842,11.75 23.683,11.911 
				23.539,11.996 23.329,12.162 23.035,12.162 22.806,11.981 22.461,11.961 22.217,11.82 22.058,11.639 21.998,11.393 
				21.998,11.106 			"/>
			<path fill-rule="evenodd" clip-rule="evenodd" fill="#575756" d="M23.989,11.537c-0.013,0.004-0.01,0.021-0.013,0.032
				c-0.056,0.246-0.179,0.378-0.35,0.428c-0.017,0.006-0.033,0.009-0.048,0.027c-0.2,0.252-0.477,0.273-0.695,0.086
				c-0.071-0.06-0.135-0.067-0.212-0.06c-0.173,0.016-0.337-0.021-0.481-0.156c-0.167-0.156-0.256-0.375-0.231-0.673
				c0.021-0.258,0.128-0.434,0.29-0.547c0.147-0.104,0.3-0.123,0.456-0.07c0.025,0.008,0.044,0.002,0.066-0.019
				c0.287-0.28,0.686-0.243,0.908,0.094c0.064,0.098,0.125,0.199,0.197,0.289c0.073,0.092,0.109,0.217,0.117,0.358
				c0,0.008,0,0.015,0.007,0.017C23.997,11.407,23.993,11.472,23.989,11.537z M22.546,10.724c-0.114-0.001-0.237,0.044-0.344,0.167
				c-0.102,0.117-0.153,0.271-0.14,0.454c0.018,0.264,0.135,0.414,0.297,0.501c0.136,0.074,0.28,0.073,0.424,0.042
				c0.033-0.006,0.059-0.005,0.083,0.029c0.026,0.036,0.059,0.061,0.092,0.084c0.185,0.132,0.415,0.11,0.571-0.114
				c0.018-0.025,0.038-0.024,0.058-0.029c0.123-0.028,0.224-0.109,0.274-0.279c0.05-0.167,0.035-0.324-0.038-0.467
				c-0.038-0.074-0.104-0.104-0.142-0.171c-0.039-0.069-0.068-0.149-0.117-0.208c-0.209-0.251-0.559-0.243-0.779,0.02
				c-0.019,0.023-0.033,0.029-0.056,0.018C22.677,10.743,22.621,10.728,22.546,10.724z"/>
		</g>
		<g>
			<polygon fill-rule="evenodd" clip-rule="evenodd" fill="#1D71B8" points="0.237,16.052 0.551,15.887 0.805,15.887 1.029,15.721 
				1.309,15.659 1.578,15.721 1.758,15.951 1.922,16.162 2.052,16.445 2.052,16.736 1.952,16.927 1.792,17.088 1.648,17.174 
				1.438,17.339 1.145,17.339 0.916,17.159 0.571,17.138 0.327,16.997 0.167,16.816 0.107,16.57 0.107,16.283 			"/>
			<path fill-rule="evenodd" clip-rule="evenodd" fill="#575756" d="M2.099,16.714c-0.013,0.004-0.01,0.021-0.013,0.032
				c-0.056,0.245-0.179,0.378-0.351,0.429c-0.017,0.005-0.032,0.008-0.047,0.026c-0.2,0.252-0.477,0.273-0.695,0.086
				c-0.07-0.06-0.135-0.067-0.211-0.06c-0.173,0.017-0.337-0.02-0.481-0.156c-0.167-0.156-0.255-0.375-0.231-0.672
				c0.021-0.259,0.129-0.434,0.29-0.548c0.147-0.104,0.3-0.124,0.456-0.07c0.025,0.008,0.044,0.002,0.066-0.019
				c0.287-0.28,0.686-0.243,0.908,0.094c0.064,0.098,0.126,0.199,0.198,0.289c0.072,0.092,0.109,0.217,0.116,0.358
				c0,0.008,0,0.015,0.007,0.017C2.105,16.584,2.102,16.649,2.099,16.714z M0.655,15.901c-0.114-0.001-0.237,0.044-0.344,0.166
				c-0.102,0.118-0.153,0.271-0.14,0.455c0.019,0.263,0.135,0.414,0.297,0.501c0.136,0.073,0.279,0.072,0.424,0.042
				c0.033-0.006,0.059-0.005,0.084,0.028c0.026,0.037,0.059,0.061,0.092,0.084c0.185,0.133,0.415,0.111,0.571-0.113
				c0.018-0.026,0.038-0.024,0.059-0.029c0.123-0.028,0.223-0.108,0.274-0.279c0.05-0.167,0.035-0.324-0.039-0.467
				c-0.038-0.073-0.104-0.104-0.142-0.172c-0.039-0.069-0.068-0.149-0.117-0.208c-0.209-0.251-0.559-0.243-0.779,0.02
				c-0.02,0.023-0.033,0.03-0.056,0.019C0.786,15.919,0.73,15.906,0.655,15.901z"/>
		</g>
	</g>
	<g>
		<path fill="#FFFFFF" d="M8.101,1.525v0.338H7.789V1.525H8.101z"/>
		<path fill="#FFFFFF" d="M8.692,1.525v0.338H8.38V1.525H8.692z"/>
		<path fill="#FFFFFF" d="M9.284,1.525v0.338H8.972V1.525H9.284z"/>
	</g>
	<g>
		<path fill="#FFFFFF" d="M22.007,3.931v0.338h-0.312V3.931H22.007z"/>
		<path fill="#FFFFFF" d="M22.6,3.931v0.338h-0.313V3.931H22.6z"/>
		<path fill="#FFFFFF" d="M23.191,3.931v0.338h-0.312V3.931H23.191z"/>
	</g>
	<g>
		<path fill="#FFFFFF" d="M6.956,21.724v0.338H6.644v-0.338H6.956z"/>
		<path fill="#FFFFFF" d="M7.547,21.724v0.338H7.235v-0.338H7.547z"/>
		<path fill="#FFFFFF" d="M8.139,21.724v0.338H7.826v-0.338H8.139z"/>
	</g>
	<g>
		<path fill="#FFFFFF" d="M19.166,20.953v0.338h-0.312v-0.338H19.166z"/>
		<path fill="#FFFFFF" d="M19.757,20.953v0.338h-0.312v-0.338H19.757z"/>
		<path fill="#FFFFFF" d="M20.349,20.953v0.338h-0.312v-0.338H20.349z"/>
	</g>
	<g>
		<path fill="#FFFFFF" d="M1.106,7.522v0.338H0.794V7.522H1.106z"/>
		<path fill="#FFFFFF" d="M1.698,7.522v0.338H1.385V7.522H1.698z"/>
		<path fill="#FFFFFF" d="M2.289,7.522v0.338H1.977V7.522H2.289z"/>
	</g>
	<g>
		<path fill="#FFFFFF" d="M0.831,16.38v0.226H0.623V16.38H0.831z"/>
		<path fill="#FFFFFF" d="M1.226,16.38v0.226H1.017V16.38H1.226z"/>
		<path fill="#FFFFFF" d="M1.621,16.38v0.226H1.412V16.38H1.621z"/>
	</g>
	<g>
		<path fill="#FFFFFF" d="M22.744,11.209v0.226h-0.208v-0.226H22.744z"/>
		<path fill="#FFFFFF" d="M23.139,11.209v0.226H22.93v-0.226H23.139z"/>
		<path fill="#FFFFFF" d="M23.534,11.209v0.226h-0.208v-0.226H23.534z"/>
	</g>
</g>
</svg>
